 http://www.imdb.com/title/tt0450259/

Source: Blood.Diamond.2006.720p.BluRay.DTS.x264-HiDt Thanks!

Subs: Arabic, Brazilian, Bulgarian, Chinese, Czech, Danish, Dutch, English, Finnish, French, Greek, Hungarian, Italian, Norwegian, Polish, Portuguese, Romanian, Spanish, Swedish, Turkish and Vietnamese ( extracted from source).

Sample and Screens included.

General
Complete name                    : Blood Diamond-720p MP4 AAC x264 BRRip 2006-CC.mp4
Format                           : MPEG-4
Format profile                   : Base Media
Codec ID                         : isom
File size                        : 2.92 GiB
Duration                         : 2h 23mn
Overall bit rate                 : 2 917 Kbps
Encoded date                     : UTC 2012-07-08 15:27:30

Video
ID                               : 1
Format                           : AVC
Format/Info                      : Advanced Video Codec
Format profile                   : High@L3.1
Format settings, CABAC           : Yes
Format settings, ReFrames        : 5 frames
Codec ID                         : avc1
Codec ID/Info                    : Advanced Video Coding
Duration                         : 2h 23mn
Bit rate mode                    : Variable
Bit rate                         : 2 529 Kbps
Nominal bit rate                 : 2 615 Kbps
Maximum bit rate                 : 27.0 Mbps
Width                            : 1 280 pixels
Height                           : 528 pixels
Display aspect ratio             : 2.35:1
Frame rate mode                  : Variable
Frame rate                       : 23.976 fps
Minimum frame rate               : 19.048 fps
Maximum frame rate               : 24.390 fps
Resolution                       : 24 bits
Colorimetry                      : 4:2:0
Scan type                        : Progressive
Bits/(Pixel*Frame)               : 0.156
Stream size                      : 2.53 GiB (87%)
Writing library                  : x264 core 112

Audio
ID                               : 2
Format                           : AAC
Format/Info                      : Advanced Audio Codec
Format version                   : Version 4
Format profile                   : LC
Format settings, SBR             : No
Codec ID                         : 40
Duration                         : 2h 23mn
Bit rate mode                    : Variable
Bit rate                         : 384 Kbps
Maximum bit rate                 : 738 Kbps
Channel(s)                       : 6 channels
Channel positions                : Front: L C R, Rear: L R, LFE
Sampling rate                    : 48.0 KHz
Resolution                       : 16 bits
Stream size                      : 393 MiB (13%)
Language                         : English

Enjoy...

Requested by cmptrluvr's.